<svg height="512pt" viewBox="0 0 512 512" width="512pt" xmlns="http://www.w3.org/2000/svg"><path d="m273.101562 262 3.296876-6-3.296876-6.300781 91.5-114.601563 22.5-97.796875c-36.601562-22.203125-82.800781-37.300781-131.101562-37.300781s-94.5 15.097656-131.101562 37.300781l15.601562 84.898438 98.398438 127.5-3.296876 6.300781 3.296876 6-108.597657 146.699219-5.402343 66c36.601562 22.203125 82.800781 37.300781 131.101562 37.300781s94.5-15.097656 131.101562-37.300781l-15.902343-85.5zm0 0" fill="#7c8388"/><path d="m371.199219 389.199219 15.902343 85.5c-36.601562 22.203125-82.800781 37.300781-131.101562 37.300781v-512c48.300781 0 94.5 15.097656 131.101562 37.300781l-22.5 97.796875-91.5 114.601563 3.296876 6.300781-3.296876 6zm0 0" fill="#575f64"/><path d="m512 256c0 92.699219-50.5 174-124.898438 218.699219l-114-212.699219 3.296876-6-3.296876-6.300781 114-212.398438c74.398438 44.699219 124.898438 126 124.898438 218.699219zm0 0" fill="#32393f"/><path d="m235.601562 256 3.296876 6-114 212.699219c-74.398438-44.699219-124.898438-126-124.898438-218.699219s50.5-174 124.898438-218.699219l114 212.398438zm0 0" fill="#575f64"/><path d="m256 151c-57.898438 0-105 47.101562-105 105s47.101562 105 105 105 105-47.101562 105-105-47.101562-105-105-105zm0 0" fill="#ff637b"/><path d="m361 256c0 57.898438-47.101562 105-105 105v-210c57.898438 0 105 47.101562 105 105zm0 0" fill="#e63950"/><path d="m256 211c-24.902344 0-45 20.097656-45 45s20.097656 45 45 45 45-20.097656 45-45-20.097656-45-45-45zm0 0" fill="#f2f6fc"/><path d="m301 256c0 24.902344-20.097656 45-45 45v-90c24.902344 0 45 20.097656 45 45zm0 0" fill="#dce1eb"/></svg>