<?xml version="1.0" encoding="iso-8859-1"?>
<!-- Generator: Adobe Illustrator 19.0.0, SVG Export Plug-In . SVG Version: 6.00 Build 0)  -->
<svg version="1.1" id="Capa_1" xmlns="http://www.w3.org/2000/svg" xmlns:xlink="http://www.w3.org/1999/xlink" x="0px" y="0px"
	 viewBox="0 0 512 512" style="enable-background:new 0 0 512 512;" xml:space="preserve">
<path style="fill:#4E7693;" d="M296.91,396.574v89.217h-81.82v-89.217h20.821v31.566c0,11.096,8.994,20.089,20.089,20.089
	s20.089-8.994,20.089-20.089v-31.566H296.91z"/>
<g>
	<rect x="215.09" y="468.28" style="fill:#385F82;" width="81.82" height="17.514"/>
	<rect x="215.09" y="396.57" style="fill:#385F82;" width="20.821" height="24.11"/>
	<rect x="276.09" y="396.57" style="fill:#385F82;" width="20.821" height="24.11"/>
</g>
<path style="fill:#159BFF;" d="M512,110.825V376.56H0V110.825c0-3.414,2.767-6.181,6.181-6.181h499.638
	C509.233,104.644,512,107.412,512,110.825z"/>
<g>
	<path style="fill:#006DF0;" d="M423.92,160.81c0.124,21.562-3.791,42.577-11.651,62.491
		c-21.994,55.795-72.442,95.858-131.657,104.563c-7.757,1.154-15.721,1.751-23.674,1.792h-0.958
		c-58.277,0-111.538-29.535-142.474-79.025c-16.462-26.342-25.25-56.753-25.425-87.957c-0.051-9.879,0.762-19.821,2.431-29.535
		c1.659-9.663,4.193-19.233,7.562-28.495h315.854c1.205,3.297,2.297,6.645,3.286,10.034c2.328,7.974,4.069,16.174,5.172,24.364
		C423.353,146.119,423.878,153.444,423.92,160.81z"/>
	<path style="fill:#006DF0;" d="M471.72,125.577c-4.626,8.757-13.66,14.196-23.571,14.196h-69.795
		c-9.9,0-18.935-5.439-23.571-14.196c-3.461-6.562-4.007-14.113-1.71-20.933H473.44C475.738,111.464,475.192,119.015,471.72,125.577
		z"/>
	<path style="fill:#006DF0;" d="M69.077,238.569c-9.907,0-18.94-5.441-23.571-14.199c-4.632-8.758-4.045-19.286,1.532-27.475
		l34.896-51.241c4.97-7.299,13.21-11.656,22.04-11.656c8.829,0,17.069,4.357,22.039,11.655l34.897,51.242
		c5.577,8.19,6.163,18.718,1.532,27.476c-4.632,8.758-13.664,14.199-23.571,14.199L69.077,238.569L69.077,238.569z"/>
	<rect y="355.99" style="fill:#006DF0;" width="512" height="20.573"/>
</g>
<path style="fill:#618BAA;" d="M512,368.349v33.79c0,3.414-2.767,6.181-6.181,6.181H6.181c-3.414,0-6.181-2.767-6.181-6.181v-33.79
	H512z"/>
<rect x="0" y="368.35" style="fill:#89B4C9;" width="512" height="12.455"/>
<path style="fill:#618BAA;" d="M323.995,508.456h-135.99c-3.414,0-6.181-2.767-6.181-6.181v-15.454c0-3.414,2.767-6.181,6.181-6.181
	h135.99c3.414,0,6.181,2.767,6.181,6.181v15.454C330.176,505.689,327.409,508.456,323.995,508.456z"/>
<path style="fill:#9FEDFF;" d="M404.635,159.079c0.113,19.512-3.554,38.189-10.302,55.3
	c-19.161,48.604-63.222,84.722-116.534,92.562c-6.851,1.01-13.856,1.545-20.975,1.586c-53.497,0.299-100.546-27.702-126.96-69.96
	c-14.113-22.582-22.345-49.253-22.499-77.84c-0.051-8.921,0.69-17.657,2.153-26.156c1.7-9.91,4.389-19.491,7.953-28.629
	c16.04-41.166,49.923-73.452,92.191-87.298c14.33-4.708,29.628-7.283,45.513-7.376c46.791-0.258,88.668,21.139,116.091,54.795
	c1.257,1.545,2.483,3.111,3.667,4.698c10.58,14.093,18.708,30.112,23.766,47.471c2.04,6.974,3.585,14.175,4.574,21.541
	C404.14,146.088,404.593,152.537,404.635,159.079z"/>
<g>
	<path style="fill:#00D8E0;" d="M403.275,139.773h-24.92c-9.9,0-18.935-5.439-23.571-14.196c-4.626-8.757-4.038-19.285,1.535-27.475
		l18.615-27.341c10.58,14.093,18.708,30.112,23.766,47.471C400.74,125.207,402.286,132.408,403.275,139.773z"/>
	<path style="fill:#00D8E0;" d="M162.439,224.372c-4.626,8.757-13.66,14.196-23.571,14.196h-9.004
		c-14.113-22.582-22.345-49.253-22.499-77.84c-0.051-8.921,0.69-17.657,2.153-26.156c6.645,1.411,12.589,5.336,16.493,11.085
		l34.903,51.241C166.488,205.087,167.075,215.615,162.439,224.372z"/>
	<path style="fill:#00D8E0;" d="M256.014,3.544c-0.289,0-0.594,0.001-0.883,0.003C168.916,4.026,99.165,74.556,99.644,160.77
		c0.232,41.765,16.714,80.939,46.41,110.306c29.485,29.159,68.486,45.184,109.921,45.184c0.295,0,0.598-0.001,0.893-0.003
		c86.215-0.479,155.966-71.01,155.487-157.224C411.877,73.107,341.833,3.544,256.014,3.544z M396.646,151.393l-49.164,0.273
		c-0.958-28.477-6.306-55.557-15.459-78.815c7.493-4.258,14.658-9.146,21.409-14.639C378.28,82.028,394.457,114.838,396.646,151.393
		z M248.645,226.788c-19.048,1.042-37.61,5.549-54.828,13.185c-8.151-21.192-12.934-45.875-13.847-71.922l68.347-0.38
		L248.645,226.788z M263.769,167.585l68.347-0.38c-0.624,26.064-5.134,50.805-13.054,72.09
		c-17.298-7.449-35.907-11.757-54.965-12.594L263.769,167.585z M263.683,152.132l-0.329-59.117
		c19.048-1.042,37.61-5.549,54.829-13.185c8.151,21.191,12.926,45.876,13.84,71.922L263.683,152.132z M341.484,47.972
		c-5.03,3.93-10.301,7.496-15.773,10.685c-1.364-2.736-2.766-5.427-4.248-8.018c-5.036-8.804-10.586-16.442-16.534-22.874
		C318.159,32.681,330.458,39.532,341.484,47.972z M308.049,58.311c1.362,2.381,2.651,4.858,3.905,7.377
		c-15.297,6.789-31.773,10.833-48.686,11.85L262.947,19.7C279.636,22.81,295.423,36.237,308.049,58.311z M248.23,152.218
		l-68.34,0.38c0.625-26.063,5.128-50.805,13.047-72.089c17.298,7.449,35.907,11.757,54.965,12.594L248.23,152.218z M247.494,19.789
		l0.321,57.834c-16.927-0.832-33.442-4.699-48.807-11.323c1.224-2.528,2.482-5.013,3.815-7.405
		C215.205,36.681,230.84,23.084,247.494,19.789z M205.602,28.321c-5.876,6.496-11.34,14.194-16.276,23.052
		c-1.449,2.6-2.818,5.299-4.148,8.042c-5.502-3.128-10.807-6.636-15.876-10.508C180.226,40.355,192.44,33.379,205.602,28.321z
		 M157.469,59.279c6.807,5.417,14.021,10.223,21.555,14.397c-8.9,23.364-13.95,50.512-14.592,79.007l-49.164,0.273
		C117.051,116.367,132.873,83.371,157.469,59.279z M115.354,168.41l49.151-0.273c0.955,28.48,6.318,55.556,15.472,78.815
		c-7.511,4.268-14.691,9.169-21.456,14.678c-0.534-0.512-1.073-1.019-1.6-1.541C131.999,235.443,117.411,203.131,115.354,168.41z
		 M170.453,271.879c5.049-3.948,10.34-7.532,15.835-10.733c1.364,2.736,2.766,5.427,4.248,8.018
		c5.062,8.849,10.641,16.525,16.624,22.977C194.048,287.305,181.693,280.498,170.453,271.879z M203.95,261.492
		c-1.362-2.381-2.651-4.858-3.905-7.377c15.297-6.789,31.773-10.833,48.686-11.85l0.321,57.838
		C232.363,296.992,216.576,283.566,203.95,261.492z M264.505,300.014l-0.321-57.836c16.921,0.836,33.437,4.707,48.804,11.331
		c-1.223,2.525-2.48,5.008-3.812,7.397C296.795,283.121,281.159,296.719,264.505,300.014z M322.674,268.429
		c1.448-2.598,2.815-5.294,4.144-8.035c5.524,3.14,10.848,6.663,15.935,10.553c-11.131,8.729-23.395,15.663-36.437,20.639
		C312.224,285.07,317.713,277.33,322.674,268.429z M356.187,258.981c-0.53,0.536-1.07,1.056-1.607,1.582
		c-6.821-5.433-14.052-10.252-21.604-14.437c8.901-23.365,13.966-50.508,14.605-79.008l49.151-0.273
		C395.06,201.589,380.833,234.06,356.187,258.981z"/>
</g>
<path style="fill:#FC4747;" d="M378.358,127.412h69.794c11.487,0,18.288-12.859,11.822-22.353l-34.897-51.242
	c-5.677-8.336-17.966-8.336-23.643,0l-34.897,51.242C360.07,114.554,366.871,127.412,378.358,127.412z"/>
<path style="fill:#FFB229;" d="M69.077,226.207h69.794c11.487,0,18.288-12.859,11.822-22.353l-34.897-51.242
	c-5.677-8.336-17.966-8.336-23.643,0l-34.897,51.242C50.79,213.348,57.59,226.207,69.077,226.207z"/>
<g>
	<path style="fill:#006DF0;" d="M87.351,294.829h-32.6c-4.267,0-7.726-3.459-7.726-7.726s3.459-7.726,7.726-7.726h32.6
		c4.267,0,7.726,3.459,7.726,7.726C95.077,291.37,91.618,294.829,87.351,294.829z"/>
	<path style="fill:#006DF0;" d="M87.351,320.521h-32.6c-4.267,0-7.726-3.459-7.726-7.726s3.459-7.726,7.726-7.726h32.6
		c4.267,0,7.726,3.459,7.726,7.726C95.077,317.062,91.618,320.521,87.351,320.521z"/>
	<path style="fill:#006DF0;" d="M474.625,186.542h-32.6c-4.267,0-7.726-3.459-7.726-7.726s3.459-7.726,7.726-7.726h32.6
		c4.267,0,7.726,3.459,7.726,7.726S478.892,186.542,474.625,186.542z"/>
	<path style="fill:#006DF0;" d="M474.625,212.234h-32.6c-4.267,0-7.726-3.459-7.726-7.726s3.459-7.726,7.726-7.726h32.6
		c4.267,0,7.726,3.459,7.726,7.726S478.892,212.234,474.625,212.234z"/>
</g>
<g>
</g>
<g>
</g>
<g>
</g>
<g>
</g>
<g>
</g>
<g>
</g>
<g>
</g>
<g>
</g>
<g>
</g>
<g>
</g>
<g>
</g>
<g>
</g>
<g>
</g>
<g>
</g>
<g>
</g>
</svg>
