<svg height="512pt" viewBox="0 0 512.001 512" width="512pt" xmlns="http://www.w3.org/2000/svg" xmlns:xlink="http://www.w3.org/1999/xlink"><linearGradient id="a" gradientUnits="userSpaceOnUse" x1="256.0000046185" x2="256.0000046185" y1=".0003997715" y2="511.530927419"><stop offset="0" stop-color="#2af598"/><stop offset="1" stop-color="#009efd"/></linearGradient><path d="m451.515625 109.953125 60.484375-60.472656-49.46875-49.480469-60.488281 60.472656 2.628906 18.585938-152.457031 152.453125c-26.488282-20.574219-59.726563-32.839844-95.785156-32.839844-86.253907 0-156.429688 70.171875-156.429688 156.429687 0 36.058594 12.269531 69.300782 32.84375 95.785157l-29.75 29.742187 28.265625 28.273438 29.816406-29.804688c26.398438 20.324219 59.4375 32.433594 95.253907 32.433594 86.257812 0 156.429687-70.175781 156.429687-156.429688 0-35.820312-12.109375-68.855468-32.4375-95.253906l152.835937-152.832031zm-178.636719 245.148437c0 64.210938-52.238281 116.449219-116.449218 116.449219-64.207032 0-116.449219-52.238281-116.449219-116.449219 0-64.210937 52.238281-116.449218 116.449219-116.449218 25.023437 0 48.222656 7.933594 67.226562 21.414062l-73.492188 73.488282-29.074218-29.074219-28.269532 28.269531 86.425782 86.433594 28.269531-28.273438-29.082031-29.082031 73.410156-73.40625c13.25 18.902344 21.035156 41.894531 21.035156 66.679687zm0 0" fill="url(#a)"/></svg>