<svg height="512pt" viewBox="0 0 512 512" width="512pt" xmlns="http://www.w3.org/2000/svg" xmlns:xlink="http://www.w3.org/1999/xlink"><linearGradient id="a" gradientUnits="userSpaceOnUse" x1="256" x2="256" y1="0" y2="512"><stop offset="0" stop-color="#2af598"/><stop offset="1" stop-color="#009efd"/></linearGradient><path d="m256.164062 471.285156-255.285156-255.285156h108.121094v-66h40v106h-51.550781l158.714843 158.714844 158.714844-158.714844h-52.878906v-106h40v66h109.449219zm-107.164062-471.285156h-40v40h40zm253 0h-40v40h40zm-253 70h-40v40h40zm253 0h-40v40h40zm-402 402v40h512v-40zm232-240c23.746094 0 43-19.253906 43-43v-85.3125c21.0625-3.039062 34.570312-9.941406 36.410156-10.921875l10.589844-6.765625v-45l-29.339844 16.429688c-1.167968.574218-16.070312 7.6875-37.660156 7.6875h-20v81c-.992188-.066407-1.988281-.117188-3-.117188-23.746094 0-43 19.253906-43 43 0 23.75 19.253906 43 43 43zm0 0" fill="url(#a)"/></svg>