<svg height="512pt" viewBox="0 -20 512 512" width="512pt" xmlns="http://www.w3.org/2000/svg" xmlns:xlink="http://www.w3.org/1999/xlink"><linearGradient id="a" gradientUnits="userSpaceOnUse" x1="255.9998104722" x2="255.9998104722" y1="-.0001065278" y2="471.8762294722"><stop offset="0" stop-color="#2af598"/><stop offset="1" stop-color="#009efd"/></linearGradient><path d="m39.988281 145.234375c0 38.855469 28.875 86.34375 83.5 137.332031 30.378907 28.351563 62.382813 52.019532 86.816407 68.613282-8.265626 10.539062-14.460938 22.777343-17.976563 36.09375-26.296875-17.625-62.164063-43.773438-96.125-75.472657-63.835937-59.585937-96.203125-115.628906-96.203125-166.566406 0-42.464844 13.941406-79.03125 40.320312-105.742187 25.148438-25.46875 59.824219-39.492188 97.644532-39.492188 49.714844 0 83.289062 19.160156 102.703125 35.234375 5.289062 4.378906 10.59375 9.507813 15.429687 14.960937 4.726563-5.292968 9.898438-10.285156 15.046875-14.578124 19.484375-16.25 53.128907-35.617188 102.757813-35.617188 37.820312 0 72.496094 14.023438 97.644531 39.492188 16.609375 16.820312 28.28125 37.550781 34.65625 61.199218l-36.707031 19.324219c-9.429688-48.175781-46.109375-80.027344-95.59375-80.027344-23.777344 0-44.976563 5.554688-63.21875 16.488281-33.539063 24.867188-54.089844 68.246094-54.089844 68.246094s-7.105469-15.640625-20.289062-33.519531c.054687.230469.097656.367187.101562.371094-.050781-.144531-.109375-.304688-.175781-.472657-7.902344-10.703124-17.980469-22.195312-30.019531-31.617187-15.875-10.539063-38.335938-19.496094-68.246094-19.496094-57.6875 0-97.976563 43.28125-97.976563 105.246094zm472.011719 222.667969c0 1.074218-.109375 2.117187-.269531 3.144531.078125 1.277344.136719 2.558594.136719 3.855469 0 33.074218-26.910157 59.984375-59.984376 59.984375-33.078124 0-59.984374-26.910157-59.984374-59.984375 0-33.074219 26.90625-59.984375 59.984374-59.984375 7.058594 0 13.832032 1.234375 20.128907 3.484375v-112.441406c-26.292969 9.402343-68.984375 21.125-123.019531 23.535156v175.355468c0 1-.097657 1.976563-.238282 2.9375.089844 1.355469.15625 2.722657.15625 4.101563 0 33.078125-26.910156 59.984375-59.984375 59.984375-33.078125 0-59.984375-26.90625-59.984375-59.984375 0-33.074219 26.90625-59.984375 59.984375-59.984375 7.039063 0 13.796875 1.230469 20.078125 3.46875v-165.425781h19.992188c91.761718 0 153.125-31.390625 153.734375-31.710938l29.226562-15.214843.042969 32.929687zm-203.082031 43.988281c0-11.023437-8.96875-19.992187-19.992188-19.992187-11.027343 0-19.996093 8.96875-19.996093 19.992187 0 11.027344 8.96875 19.996094 19.996093 19.996094 11.023438 0 19.992188-8.96875 19.992188-19.996094zm162.957031-36.988281c0-11.027344-8.96875-19.996094-19.992188-19.996094-11.027343 0-19.996093 8.96875-19.996093 19.996094 0 11.023437 8.96875 19.996094 19.996093 19.996094 11.023438 0 19.992188-8.972657 19.992188-19.996094zm0 0" fill="url(#a)"/></svg>