<svg height="512pt" viewBox="0 0 512 512" width="512pt" xmlns="http://www.w3.org/2000/svg" xmlns:xlink="http://www.w3.org/1999/xlink"><linearGradient id="a" gradientUnits="userSpaceOnUse" x1="256" x2="256" y1="0" y2="512"><stop offset="0" stop-color="#2af598"/><stop offset="1" stop-color="#009efd"/></linearGradient><path d="m382 147h60.570312c-38.339843-65.855469-108.667968-107-186.570312-107-119.101562 0-216 96.898438-216 216s96.898438 216 216 216 216-96.898438 216-216h40c0 68.378906-26.628906 132.667969-74.980469 181.019531-48.351562 48.351563-112.640625 74.980469-181.019531 74.980469s-132.667969-26.628906-181.019531-74.980469c-48.351563-48.351562-74.980469-112.640625-74.980469-181.019531s26.628906-132.667969 74.980469-181.019531c48.351562-48.351563 112.640625-74.980469 181.019531-74.980469 51.890625 0 101.863281 15.445312 144.519531 44.664062 28.804688 19.734376 53.011719 44.820313 71.480469 73.828126v-61.492188h40v130h-130zm-190 11.34375 169.972656 98.222656-169.972656 98.222656zm40 127.132812 50.027344-28.910156-50.027344-28.910156zm0 0" fill="url(#a)"/></svg>